<mxfile host="app.diagrams.net" modified="2022-03-09T08:01:32.553Z" agent="5.0 (Macintosh; Intel Mac OS X 10_15_7) AppleWebKit/537.36 (KHTML, like Gecko) Chrome/99.0.4844.51 Safari/537.36" etag="rLKgjKK6eu6VfOKiVN7t" version="16.6.1" type="github">
  <diagram id="8koeKg_7keTGwWJPBMp-" name="第 1 页">
    <mxGraphModel dx="1190" dy="797" grid="0" gridSize="10" guides="1" tooltips="1" connect="1" arrows="1" fold="1" page="1" pageScale="1" pageWidth="1169" pageHeight="1654" background="#000000" math="0" shadow="0">
      <root>
        <mxCell id="0" />
        <mxCell id="1" parent="0" />
        <mxCell id="xl_379gmcrAtbpDHnS2o-5" value="" style="group" parent="1" vertex="1" connectable="0">
          <mxGeometry x="272" y="356" width="474" height="186" as="geometry" />
        </mxCell>
        <mxCell id="xl_379gmcrAtbpDHnS2o-1" value="&lt;font style=&quot;font-size: 26px&quot; color=&quot;#ffffff&quot;&gt;Bottle Storage Engine&lt;/font&gt;" style="rounded=0;whiteSpace=wrap;html=1;fillColor=#ffcd28;gradientColor=#ffa500;strokeColor=#d79b00;" parent="xl_379gmcrAtbpDHnS2o-5" vertex="1">
          <mxGeometry width="474" height="60" as="geometry" />
        </mxCell>
        <mxCell id="xl_379gmcrAtbpDHnS2o-2" value="&lt;font color=&quot;#ffffff&quot;&gt;&lt;span style=&quot;font-size: 26px&quot;&gt;Operation System File&amp;nbsp;&lt;/span&gt;&lt;/font&gt;" style="rounded=0;whiteSpace=wrap;html=1;fillColor=#f8cecc;gradientColor=#ea6b66;strokeColor=#b85450;" parent="xl_379gmcrAtbpDHnS2o-5" vertex="1">
          <mxGeometry y="126" width="474" height="60" as="geometry" />
        </mxCell>
        <mxCell id="xl_379gmcrAtbpDHnS2o-3" value="" style="endArrow=classic;startArrow=classic;html=1;rounded=0;fontSize=26;fontColor=#FFFFFF;strokeColor=#FFFFFF;strokeWidth=2;dashed=1;" parent="xl_379gmcrAtbpDHnS2o-5" edge="1">
          <mxGeometry width="50" height="50" relative="1" as="geometry">
            <mxPoint x="97" y="116" as="sourcePoint" />
            <mxPoint x="97" y="72" as="targetPoint" />
          </mxGeometry>
        </mxCell>
        <mxCell id="xl_379gmcrAtbpDHnS2o-4" value="" style="endArrow=classic;startArrow=classic;html=1;rounded=0;fontSize=26;fontColor=#FFFFFF;strokeColor=#FFFFFF;strokeWidth=2;dashed=1;" parent="xl_379gmcrAtbpDHnS2o-5" edge="1">
          <mxGeometry width="50" height="50" relative="1" as="geometry">
            <mxPoint x="373" y="114" as="sourcePoint" />
            <mxPoint x="373" y="74" as="targetPoint" />
          </mxGeometry>
        </mxCell>
        <mxCell id="aUyY0NDmHM-qacKa48R5-1" style="edgeStyle=orthogonalEdgeStyle;rounded=0;orthogonalLoop=1;jettySize=auto;html=1;" edge="1" parent="1" source="xl_379gmcrAtbpDHnS2o-6">
          <mxGeometry relative="1" as="geometry">
            <mxPoint x="508" y="268" as="targetPoint" />
          </mxGeometry>
        </mxCell>
        <mxCell id="xl_379gmcrAtbpDHnS2o-6" value="User Develop API" style="rounded=1;whiteSpace=wrap;html=1;fontSize=26;fontColor=#FFFFFF;dashed=1;strokeWidth=2;fillColor=#000000;strokeColor=#FFFFFF;" parent="1" vertex="1">
          <mxGeometry x="289" y="173" width="438" height="87" as="geometry" />
        </mxCell>
        <mxCell id="xl_379gmcrAtbpDHnS2o-8" value="" style="endArrow=classic;startArrow=classic;html=1;rounded=0;dashed=1;fontSize=26;fontColor=#FFFFFF;strokeColor=#FFFFFF;strokeWidth=2;" parent="1" edge="1">
          <mxGeometry width="50" height="50" relative="1" as="geometry">
            <mxPoint x="507.5" y="343" as="sourcePoint" />
            <mxPoint x="507.5" y="269" as="targetPoint" />
          </mxGeometry>
        </mxCell>
      </root>
    </mxGraphModel>
  </diagram>
</mxfile>
